<svg xmlns="http://www.w3.org/2000/svg" width="20" height="19" viewBox="0 0 20 19"><defs><mask id="x2m2b" width="2" height="2" x="-1" y="-1"><path fill="#fff" d="M1 1h16v15H1z"/><path d="M8.924 13.891c-.408 0-.728-.308-.728-.7 0-.393.32-.702.728-.702.407 0 .727.31.727.701 0 .393-.32.701-.727.701zm.67-7.177l-.137 4.648H8.39l-.137-4.648zM7.891 1.606L1.145 13.918c-.427.77.14 1.71 1.032 1.71h13.497c.888 0 1.455-.94 1.033-1.71L9.957 1.606c-.447-.808-1.62-.808-2.066 0z"/></mask><filter id="x2m2a" width="39" height="38" x="-10" y="-10" filterUnits="userSpaceOnUse"><feOffset dx="1" dy="1" in="SourceGraphic" result="FeOffset1023Out"/><feGaussianBlur in="FeOffset1023Out" result="FeGaussianBlur1024Out" stdDeviation="0.4 0.4"/></filter><clipPath id="x2m2c"><path fill="#fff" d="M.572 16.061V.94h16.856V16.06zm8.352-2.17c-.408 0-.728-.308-.728-.7 0-.393.32-.702.728-.702.407 0 .727.31.727.701 0 .393-.32.701-.727.701zm.67-7.177l-.137 4.648H8.39l-.137-4.648zM7.891 1.606L1.145 13.918c-.427.77.14 1.71 1.032 1.71h13.497c.888 0 1.455-.94 1.033-1.71L9.957 1.606c-.447-.808-1.62-.808-2.066 0z"/></clipPath></defs><g><g opacity="-1"><g filter="url(#x2m2a)"><path fill="none" d="M8.924 13.891c-.408 0-.728-.308-.728-.7 0-.393.32-.702.728-.702.407 0 .727.31.727.701 0 .393-.32.701-.727.701zm.67-7.177l-.137 4.648H8.39l-.137-4.648zM7.891 1.606L1.145 13.918c-.427.77.14 1.71 1.032 1.71h13.497c.888 0 1.455-.94 1.033-1.71L9.957 1.606c-.447-.808-1.62-.808-2.066 0z" mask="url(&quot;#x2m2b&quot;)"/><path fill-opacity=".16" d="M8.924 13.891c-.408 0-.728-.308-.728-.7 0-.393.32-.702.728-.702.407 0 .727.31.727.701 0 .393-.32.701-.727.701zm.67-7.177l-.137 4.648H8.39l-.137-4.648zM7.891 1.606L1.145 13.918c-.427.77.14 1.71 1.032 1.71h13.497c.888 0 1.455-.94 1.033-1.71L9.957 1.606c-.447-.808-1.62-.808-2.066 0z"/></g><path fill="#ffff5d" d="M8.924 13.891c-.408 0-.728-.308-.728-.7 0-.393.32-.702.728-.702.407 0 .727.31.727.701 0 .393-.32.701-.727.701zm.67-7.177l-.137 4.648H8.39l-.137-4.648zM7.891 1.606L1.145 13.918c-.427.77.14 1.71 1.032 1.71h13.497c.888 0 1.455-.94 1.033-1.71L9.957 1.606c-.447-.808-1.62-.808-2.066 0z"/><path fill="none" stroke="#980000" stroke-miterlimit="20" stroke-width="2" d="M8.924 13.891c-.408 0-.728-.308-.728-.7 0-.393.32-.702.728-.702.407 0 .727.31.727.701 0 .393-.32.701-.727.701zm.67-7.177l-.137 4.648H8.39l-.137-4.648zM7.891 1.606L1.145 13.918c-.427.77.14 1.71 1.032 1.71h13.497c.888 0 1.455-.94 1.033-1.71L9.957 1.606c-.447-.808-1.62-.808-2.066 0z" clip-path="url(&quot;#x2m2c&quot;)"/></g></g></svg>