<svg xmlns="http://www.w3.org/2000/svg" xmlns:xlink="http://www.w3.org/1999/xlink" width="35" height="35" viewBox="0 0 35 35"><defs><filter id="a" x="0" y="0" width="35" height="35" filterUnits="userSpaceOnUse"><feOffset dx="1" dy="1" input="SourceAlpha"/><feGaussianBlur stdDeviation="0.5" result="b"/><feFlood flood-opacity="0.161"/><feComposite operator="in" in2="b"/><feComposite in="SourceGraphic"/></filter></defs><g transform="translate(0.833 0.262)"><g transform="matrix(1, 0, 0, 1, -0.83, -0.26)" filter="url(#a)"><circle cx="16" cy="16" r="16" transform="translate(0.5 0.5)" fill="#d90808"/></g><path d="M19.7,18.8H2.038A2.038,2.038,0,0,1,0,16.765V4.538A2.038,2.038,0,0,1,2.038,2.5H19.7a2.038,2.038,0,0,1,2.038,2.038V16.765A2.038,2.038,0,0,1,19.7,18.8ZM4.755,4.878A2.378,2.378,0,1,0,7.133,7.255,2.378,2.378,0,0,0,4.755,4.878ZM2.717,16.086h16.3V11.331L15.3,7.615a.51.51,0,0,0-.721,0L8.831,13.369,6.474,11.012a.51.51,0,0,0-.721,0L2.717,14.048Z" transform="translate(4.762 5.972)" fill="#fff"/></g></svg>