<svg xmlns="http://www.w3.org/2000/svg" xmlns:xlink="http://www.w3.org/1999/xlink" width="35" height="35" viewBox="0 0 35 35"><defs><filter id="a" x="0" y="0" width="35" height="35" filterUnits="userSpaceOnUse"><feOffset dx="1" dy="1" input="SourceAlpha"/><feGaussianBlur stdDeviation="0.5" result="b"/><feFlood flood-opacity="0.161"/><feComposite operator="in" in2="b"/><feComposite in="SourceGraphic"/></filter></defs><g transform="translate(-33.5 -164.5)"><g transform="translate(34.333 164.667)"><g transform="matrix(1, 0, 0, 1, -0.83, -0.17)" filter="url(#a)"><circle cx="16" cy="16" r="16" transform="translate(0.5 0.5)" fill="#bf76ff"/></g></g><path d="M17.926,19.741a1.1,1.1,0,0,1-.778-1.879,7.713,7.713,0,0,0,0-10.9A1.1,1.1,0,0,1,18.7,5.41a9.905,9.905,0,0,1,0,14.008,1.1,1.1,0,0,1-.778.322Zm-3.91-2.075a1.1,1.1,0,0,1-.778-1.879,4.775,4.775,0,0,0,0-6.745,1.1,1.1,0,0,1,1.556-1.556,6.978,6.978,0,0,1,0,9.858,1.1,1.1,0,0,1-.778.322Zm-3.05,5.021a.733.733,0,0,1-.519-.215L4.793,16.817H2.162a.734.734,0,0,1-.734-.734V8.746a.734.734,0,0,1,.734-.734H4.793l5.655-5.655a.734.734,0,0,1,1.253.519V21.953a.734.734,0,0,1-.734.734Z" transform="translate(38.231 168.477)" fill="#fff"/></g></svg>