<svg xmlns="http://www.w3.org/2000/svg" xmlns:xlink="http://www.w3.org/1999/xlink" width="35" height="35" viewBox="0 0 35 35"><defs><filter id="a" x="0" y="0" width="35" height="35" filterUnits="userSpaceOnUse"><feOffset dx="1" dy="1" input="SourceAlpha"/><feGaussianBlur stdDeviation="0.5" result="b"/><feFlood flood-opacity="0.161"/><feComposite operator="in" in2="b"/><feComposite in="SourceGraphic"/></filter></defs><g transform="translate(-33.5 -226.5)"><g transform="translate(34.333 226.571)"><g transform="matrix(1, 0, 0, 1, -0.83, -0.07)" filter="url(#a)"><circle cx="16" cy="16" r="16" transform="translate(0.5 0.5)" fill="#00b461"/></g></g><path d="M20.132,5.857A3.077,3.077,0,0,0,17.2,2.643C15.01,2.54,12.774,2.5,10.49,2.5H9.777c-2.28,0-4.52.04-6.713.143A3.084,3.084,0,0,0,.139,5.865C.04,7.274,0,8.683,0,10.092s.04,2.818.135,4.232A3.087,3.087,0,0,0,3.06,17.55c2.3.107,4.667.154,7.07.15s4.762-.04,7.07-.15a3.088,3.088,0,0,0,2.929-3.226c.1-1.413.139-2.822.135-4.235S20.227,7.27,20.132,5.857ZM8.194,13.975V6.2l5.74,3.887Z" transform="translate(39.763 232.762)" fill="#fff"/></g></svg>