<svg xmlns="http://www.w3.org/2000/svg" xmlns:xlink="http://www.w3.org/1999/xlink" width="20.852" height="19.629" viewBox="0 0 20.852 19.629"><defs><filter id="a" x="0" y="0" width="20.852" height="19.629" filterUnits="userSpaceOnUse"><feOffset dx="1" dy="1" input="SourceAlpha"/><feGaussianBlur stdDeviation="0.5" result="b"/><feFlood flood-opacity="0.161"/><feComposite operator="in" in2="b"/><feComposite in="SourceGraphic"/></filter></defs><g transform="matrix(1, 0, 0, 1, 0, 0)" filter="url(#a)"><g transform="translate(-0.37 -1)" fill="#ffff5d"><path d="M 16.54925155639648 17.62853813171387 L 3.052141904830933 17.62853813171387 C 2.449391841888428 17.62853813171387 1.908171892166138 17.32059860229492 1.604391932487488 16.80480766296387 C 1.30597186088562 16.29812812805176 1.297781944274902 15.68907833099365 1.582481861114502 15.17560768127441 L 8.327921867370605 2.865447759628296 C 8.62727165222168 2.32303786277771 9.176852226257324 2.00000786781311 9.798791885375977 2.00000786781311 C 10.42073154449463 2.00000786781311 10.97031211853027 2.32303786277771 11.2689323425293 2.86412787437439 L 18.02006149291992 15.1776876449585 C 18.30240249633789 15.69149780273438 18.29220199584961 16.30092811584473 17.99255180358887 16.80750846862793 C 17.68845176696777 17.32160758972168 17.14889144897461 17.62853813171387 16.54925155639648 17.62853813171387 Z M 9.798791885375977 14.48949813842773 C 9.666901588439941 14.48949813842773 9.571171760559082 14.57400798797607 9.571171760559082 14.69044780731201 C 9.571171760559082 14.80688762664795 9.666901588439941 14.89139747619629 9.798791885375977 14.89139747619629 C 9.930682182312012 14.89139747619629 10.02641201019287 14.80688762664795 10.02641201019287 14.69044780731201 C 10.02641201019287 14.57400798797607 9.930682182312012 14.48949813842773 9.798791885375977 14.48949813842773 Z M 9.750923156738281 12.36188793182373 L 9.846660614013672 12.36188793182373 L 9.954293251037598 8.714278221130371 L 9.643290519714355 8.714278221130371 L 9.750923156738281 12.36188793182373 Z" stroke="none"/><path d="M 9.798791885375977 2.500001907348633 C 9.39402961730957 2.500001907348633 8.989267349243164 2.701906204223633 8.766411781311035 3.105716705322266 L 2.01976203918457 15.41806697845459 C 1.59309196472168 16.18758773803711 2.160711288452148 17.12853622436523 3.052141189575195 17.12853622436523 L 16.54925155639648 17.12853622436523 C 17.4368724822998 17.12853622436523 18.00449180603027 16.18758773803711 17.58163261413574 15.41806697845459 L 10.83117198944092 3.105716705322266 C 10.60831642150879 2.701906204223633 10.20355415344238 2.500001907348633 9.798791885375977 2.500001907348633 M 9.128312110900879 8.214277267456055 L 10.46926212310791 8.214277267456055 L 10.33212184906006 12.86188697814941 L 9.265461921691895 12.86188697814941 L 9.128312110900879 8.214277267456055 M 9.798791885375977 15.39139747619629 C 9.391171455383301 15.39139747619629 9.071171760559082 15.08282661437988 9.071171760559082 14.6904468536377 C 9.071171760559082 14.29806709289551 9.391171455383301 13.9894962310791 9.798791885375977 13.9894962310791 C 10.20641231536865 13.9894962310791 10.52641201019287 14.29806709289551 10.52641201019287 14.6904468536377 C 10.52641201019287 15.08282661437988 10.20641231536865 15.39139747619629 9.798791885375977 15.39139747619629 M 9.798791885375977 1.499996185302734 C 10.59349155426025 1.499996185302734 11.32455158233643 1.930126190185547 11.70669174194336 2.622526168823242 L 18.45849227905273 14.93731689453125 C 18.82659149169922 15.60718727111816 18.81346130371094 16.40180587768555 18.42290115356445 17.06206703186035 C 18.02788162231445 17.72985649108887 17.32745170593262 18.12853622436523 16.54925155639648 18.12853622436523 L 3.052141189575195 18.12853622436523 C 2.270431518554688 18.12853622436523 1.568161010742188 17.72853660583496 1.173561096191406 17.05854797363281 C 0.7843227386474609 16.39766693115234 0.7737216949462891 15.60312652587891 1.14520263671875 14.93315696716309 L 7.88944149017334 2.625177383422852 C 8.273012161254883 1.930126190185547 9.004072189331055 1.499996185302734 9.798791885375977 1.499996185302734 Z" stroke="none" fill="#980000"/></g></g></svg>