<svg xmlns="http://www.w3.org/2000/svg" width="18" height="18" viewBox="0 0 18 18"><g><g opacity="-1"><path fill="#666" d="M12.5 7.031c0 .26-.21.469-.469.469H2.97a.469.469 0 0 1-.469-.469V2.97c0-.26.21-.469.469-.469h8.926c.125 0 .244.05.332.137l.136.136a.469.469 0 0 1 .137.332zM8.75 15a2.5 2.5 0 1 1 0-5 2.5 2.5 0 0 1 0 5zM13.674.55A1.875 1.875 0 0 0 12.348 0H1.875C.839 0 0 .84 0 1.875v13.75C0 16.661.84 17.5 1.875 17.5h13.75c1.036 0 1.875-.84 1.875-1.875V5.152c0-.498-.198-.975-.55-1.326z"/></g></g></svg>